<svg width="72" height="72" viewBox="0 0 72 72" fill="none" xmlns="http://www.w3.org/2000/svg">
<circle cx="36" cy="36" r="35" fill="#EDF4F2" stroke="#10542C" stroke-width="2"/>
<path d="M26.352 52.432C25.04 52.432 23.904 52.224 22.944 51.808C22.016 51.36 21.264 50.656 20.688 49.696C20.144 48.736 19.76 47.488 19.536 45.952C19.312 44.416 19.232 42.544 19.296 40.336L19.92 24.4L24.816 23.776L25.296 23.728L25.344 24.16C25.184 24.384 25.04 24.608 24.912 24.832C24.816 25.056 24.736 25.44 24.672 25.984L24.192 32.176L24.384 32.704L24.048 40.336C23.952 42.512 24.016 44.208 24.24 45.424C24.464 46.608 24.848 47.44 25.392 47.92C25.936 48.368 26.592 48.592 27.36 48.592C28.384 48.592 29.296 48.384 30.096 47.968C30.928 47.552 31.744 47.04 32.544 46.432L33.6 49.984C32.512 50.784 31.376 51.392 30.192 51.808C29.008 52.224 27.728 52.432 26.352 52.432ZM14.976 29.776H31.728L31.68 33.616H14.976V29.776Z" fill="#083319"/>
<path d="M44.784 41.584L42.576 43.648V52H37.776V19.888H43.008V20.32C42.816 20.512 42.688 20.72 42.624 20.944C42.592 21.168 42.576 21.552 42.576 22.096V38.56L51.984 29.632C52.208 29.696 52.448 29.744 52.704 29.776C52.96 29.808 53.216 29.84 53.472 29.872C53.76 29.872 54.032 29.888 54.288 29.92C54.544 29.92 54.768 29.92 54.96 29.92H57.12L48.144 38.656L58.416 52L52.848 52.192L44.784 41.584Z" fill="#083319"/>
</svg>
