<svg width="80" height="80" viewBox="0 0 80 80" fill="none" xmlns="http://www.w3.org/2000/svg">
<rect width="80" height="80" rx="16" fill="#1F2937"/>
<path d="M25.3693 54.136C24.0893 54.136 22.9479 53.8907 21.9453 53.4C20.9426 52.9307 20.1533 52.2267 19.5773 51.288C19.0226 50.3493 18.7453 49.1973 18.7453 47.832V45.048C18.7453 44.4507 18.5426 43.9707 18.1373 43.608C17.7533 43.224 17.2306 43 16.5693 42.936V39.832C17.2306 39.7893 17.7533 39.5653 18.1373 39.16C18.5426 38.7333 18.7453 38.2427 18.7453 37.688V34.968C18.7453 33.624 19.0333 32.4933 19.6093 31.576C20.1853 30.6373 20.9746 29.9227 21.9773 29.432C22.9799 28.92 24.1106 28.664 25.3693 28.664H26.8733V32.088H25.9453C25.0919 32.088 24.4093 32.3653 23.8973 32.92C23.3853 33.4747 23.1293 34.264 23.1293 35.288V37.272C23.1293 38.552 22.7666 39.576 22.0413 40.344C21.3373 41.0907 20.4413 41.6133 19.3533 41.912L19.3853 40.792C20.4733 41.112 21.3693 41.6667 22.0733 42.456C22.7773 43.224 23.1293 44.2267 23.1293 45.464V47.512C23.1293 48.5573 23.3853 49.3573 23.8973 49.912C24.4093 50.4453 25.0919 50.712 25.9453 50.712H26.8733V54.136H25.3693ZM40.9338 51C39.7818 51 38.7684 50.744 37.8938 50.232C37.0404 49.72 36.3791 49.0053 35.9098 48.088C35.4618 47.1707 35.2378 46.1253 35.2378 44.952V30.168L39.6538 28.088V44.952C39.6538 45.4853 39.7284 45.944 39.8778 46.328C40.0271 46.6907 40.3258 46.968 40.7738 47.16C41.2218 47.352 41.8404 47.448 42.6298 47.448H47.3978V51H40.9338ZM31.5258 36.824V33.272H44.3578V36.824H31.5258ZM53.6182 54.136H52.1142V50.712H53.0422C53.8956 50.712 54.5782 50.4453 55.0903 49.912C55.6022 49.3573 55.8582 48.5573 55.8582 47.512V45.464C55.8582 44.2267 56.2102 43.224 56.9142 42.456C57.6182 41.6667 58.5143 41.112 59.6023 40.792L59.6342 41.912C58.5676 41.6133 57.6716 41.0907 56.9462 40.344C56.2209 39.576 55.8582 38.552 55.8582 37.272V35.288C55.8582 34.264 55.6022 33.4747 55.0903 32.92C54.5782 32.3653 53.8956 32.088 53.0422 32.088H52.1142V28.664H53.6182C54.8982 28.664 56.0289 28.92 57.0103 29.432C58.0129 29.9227 58.8022 30.6373 59.3783 31.576C59.9542 32.4933 60.2422 33.624 60.2422 34.968V37.688C60.2422 38.2427 60.4449 38.7333 60.8503 39.16C61.2556 39.5653 61.7783 39.7893 62.4183 39.832V42.936C61.7783 43 61.2556 43.224 60.8503 43.608C60.4449 43.9707 60.2422 44.4507 60.2422 45.048V47.832C60.2422 49.1973 59.9542 50.3493 59.3783 51.288C58.8236 52.2267 58.0449 52.9307 57.0422 53.4C56.0609 53.8907 54.9196 54.136 53.6182 54.136Z" fill="#E0E7FF"/>
</svg>
